<svg xmlns="http://www.w3.org/2000/svg" viewBox="0 0 347.71 371.68"><defs><style>.cls-1{fill:red;}</style></defs><g id="Layer_2" data-name="Layer 2"><g id="svg1326"><g id="layer1"><path id="path30" class="cls-1" d="M171.5,370.59c-.34-.62-1.82-5.08-3.28-9.93C159,330,141.79,298.86,113,260.75c-10.81-14.32-21-27-48.49-60.44-31.85-38.72-41-51.12-50.19-68.23C8.9,122,3.27,106.61,1.41,96.82S-.47,71.05,1.35,62.73C8.75,28.88,38.82,3.34,74.78.36,116-3,151,17.76,169.42,56.57l4.11,8.66,3.1-6.84a95.18,95.18,0,0,1,16.5-25.64C212.15,10.9,234.8.2,262.08.16c12.22,0,19.22,1,29.64,4.29C307.29,9.38,319,17.06,329.45,29.16c27.21,31.56,24,74.54-9.53,127.19-7.82,12.28-21.93,30.45-41.33,53.23-22.34,26.23-33.26,39.57-44.43,54.27-26.8,35.24-44.81,67.26-54.73,97.24a85.87,85.87,0,0,1-3.52,9.47C174.93,372,172.31,372.06,171.5,370.59Z"/></g></g></g></svg>