<svg xmlns="http://www.w3.org/2000/svg" viewBox="0 0 129.66 106.7"><defs><style>.cls-1{fill:none;stroke:#fff;stroke-miterlimit:10;stroke-width:7px;}.cls-2{fill:#fff;}</style></defs><g id="Layer_2" data-name="Layer 2"><g id="Layer_1-2" data-name="Layer 1"><path class="cls-1" d="M95.83,15.41l27.31,15.41a5.92,5.92,0,0,1,2.25,8.07l-34.57,61.3a5.92,5.92,0,0,1-8.07,2.25l-20.85-12"/><path class="cls-1" d="M53,9.11a21.69,21.69,0,0,1,7.15-1l31.35.74a5.94,5.94,0,0,1,5.79,6.07L95.66,85.22A5.93,5.93,0,0,1,89.6,91l-25.51-.08h0"/><path class="cls-2" d="M47.54,7a.62.62,0,0,1,.51.27l41,61a.61.61,0,0,1-.17.85L49,95.93a.51.51,0,0,1-.33.11.63.63,0,0,1-.52-.27l-41-61A.61.61,0,0,1,7.27,34L47.2,7.1a.65.65,0,0,1,.34-.1m0-7a7.58,7.58,0,0,0-4.25,1.3L3.36,28.15A7.62,7.62,0,0,0,1.3,38.72l41,61a7.59,7.59,0,0,0,10.56,2.07L92.79,74.88a7.61,7.61,0,0,0,2.07-10.56l-41-61A7.62,7.62,0,0,0,47.54,0Z"/></g></g></svg>